# xmcd CD database file
#
# Track frame offsets:
#	150
#	9436
#	19731
#	32044
#	45158
#	55789
#	67666
#	78259
#	89697
#	104489
#	117892
#	129049
#	137985
#	150062
#	157694
#	170451
#	180600
#	191397
#
# Disc length: 2764 seconds
#
# Revision: 2
# Processed by: cddbd v1.4b42PL1 Copyright (c) Steve Scherf et al.
# Submitted via: CDex 1.40Beta5
#
DISCID=c70aca12
DTITLE=Tom Jones - The Great Tom Jones - 3 CD Set - Disc 3
DYEAR=1900
DGENRE=Blues
TTITLE0=For Once In My Life
TTITLE1=Such a Night
TTITLE2=I (Who Have Nothing)
TTITLE3=If Ever I Would Leave You
TTITLE4=Save The Last Dance For Me
TTITLE5=If I Ruled The World
TTITLE6=Release Me
TTITLE7=Send In The Clowns
TTITLE8=Unchained Melody
TTITLE9=Let It Be
TTITLE10=Long and Winding Road
TTITLE11=Something 'bout You Baby I Like
TTITLE12=Endless Love
TTITLE13=My Way
TTITLE14=Do Ya Think I am Sexy?
TTITLE15=Nine To Five
TTITLE16=FEVER
TTITLE17=Celebration
EXTD=Manufactured and Distributed under licence by REDEX  Entertainment Pty \n
EXTD=Ltd\nRXBOX31055  -- AMCOS ID3G:   0
EXTT0=
EXTT1=
EXTT2=
EXTT3=
EXTT4=
EXTT5=
EXTT6=
EXTT7=
EXTT8=
EXTT9=
EXTT10=
EXTT11=
EXTT12=
EXTT13=
EXTT14=
EXTT15=
EXTT16=
EXTT17=
PLAYORDER=
